<?xml version="1.0" standalone="no"?>
<!DOCTYPE svg PUBLIC "-//W3C//DTD SVG 20010904//EN"
 "http://www.w3.org/TR/2001/REC-SVG-20010904/DTD/svg10.dtd">
<svg version="1.0" xmlns="http://www.w3.org/2000/svg"
 width="300.000000pt" height="199.000000pt" viewBox="0 0 300.000000 199.000000"
 preserveAspectRatio="xMidYMid meet">
<metadata>
Created by potrace 1.10, written by Peter Selinger 2001-2011
</metadata>
<g transform="translate(0.000000,199.000000) scale(0.100000,-0.100000)"
fill="#000000" stroke="none">
<path d="M312 1969 c-23 -61 -23 -63 29 -134 28 -38 72 -92 98 -120 63 -67 91
-107 135 -188 38 -72 45 -97 51 -187 3 -30 7 -72 11 -92 3 -21 6 -41 6 -45 0
-17 32 -88 42 -95 7 -5 1 -27 -17 -64 -15 -31 -26 -59 -23 -62 3 -3 15 18 27
46 12 29 25 52 30 52 5 0 4 -12 -3 -27 -6 -16 -12 -39 -14 -53 -1 -14 -10 -65
-19 -115 -15 -77 -16 -102 -5 -170 22 -148 108 -308 222 -410 29 -27 45 -43
35 -35 -9 7 -20 10 -23 7 -10 -10 79 -69 172 -113 111 -54 222 -83 329 -89
l80 -4 -74 9 c-41 6 -76 11 -78 14 -2 2 47 1 109 -2 292 -12 547 78 727 259
84 83 131 155 169 257 33 90 42 257 17 351 -17 68 -76 195 -96 207 -14 8 -13
7 29 -73 17 -34 32 -66 32 -70 0 -4 -18 25 -39 65 -22 41 -48 83 -58 95 l-18
22 23 -19 c12 -11 22 -14 22 -8 0 7 -34 46 -76 87 -42 41 -72 75 -68 75 17 0
96 -75 139 -132 161 -214 187 -443 76 -672 -22 -44 -38 -83 -36 -85 9 -8 78
148 95 213 10 39 19 59 19 45 2 -86 -85 -261 -181 -364 -124 -132 -288 -225
-478 -270 -127 -30 -101 -36 45 -11 44 8 81 19 94 30 8 6 16 10 17 9 7 -4 79
29 106 48 29 21 53 25 42 7 -4 -7 -3 -8 5 -4 6 4 9 11 6 16 -3 5 12 19 33 32
22 13 70 50 107 83 37 33 72 60 79 60 21 0 18 -48 -9 -107 -14 -32 -25 -64
-23 -70 5 -14 56 99 60 134 2 15 8 31 13 35 4 4 5 3 1 -4 -3 -6 -2 -14 3 -17
5 -3 11 12 13 33 2 26 0 37 -8 34 -25 -9 -22 17 6 68 110 198 115 430 14 632
-32 65 -32 91 1 83 13 -3 40 -16 59 -29 106 -67 134 -82 192 -97 63 -17 86
-14 42 5 -13 6 -23 17 -24 25 0 20 -15 54 -27 62 -6 4 -4 13 6 23 10 9 17 22
16 28 0 8 -2 8 -6 -1 -2 -6 -9 -10 -14 -6 -5 3 -9 2 -8 -3 6 -26 -14 -41 -47
-36 -22 4 -34 2 -34 -6 0 -18 -29 -13 -82 16 l-49 27 43 22 c24 12 60 24 82
28 21 4 54 16 73 26 19 10 43 15 56 12 19 -5 20 -3 9 11 -14 17 -16 17 -106
-22 -27 -12 -51 -19 -54 -16 -9 9 10 20 63 40 48 18 88 45 66 45 -5 0 -13 -5
-16 -10 -4 -6 -12 -7 -18 -3 -16 10 -97 12 -97 2 0 -4 -33 -18 -72 -30 -40
-12 -78 -28 -84 -36 -6 -7 -19 -13 -28 -13 -9 0 -16 -4 -16 -9 0 -5 13 -9 29
-9 17 1 29 5 28 11 -1 5 4 12 12 15 10 3 12 0 8 -12 -9 -22 14 -21 63 5 57 30
61 17 6 -16 -30 -17 -56 -25 -72 -22 -13 2 -27 1 -29 -3 -10 -17 -33 -1 -114
80 -70 72 -81 87 -72 102 6 10 11 27 11 38 0 11 3 20 8 20 4 0 7 33 6 73 0 52
-6 85 -22 117 -19 41 -20 47 -6 67 8 13 12 23 8 23 -4 0 -1 7 6 15 10 12 10
15 -1 15 -8 0 -21 -22 -30 -48 -14 -45 -14 -48 8 -87 20 -34 22 -49 17 -97 -7
-71 -28 -153 -46 -180 -13 -20 -9 -26 51 -87 194 -197 243 -464 127 -705 -26
-54 -56 -94 -119 -157 -102 -102 -124 -119 -224 -168 -164 -80 -266 -102 -458
-96 -154 4 -282 36 -404 102 -83 45 -196 142 -240 206 -45 66 -99 178 -111
232 -25 108 -12 250 31 352 10 23 14 45 9 48 -14 8 -58 93 -70 133 -6 20 -15
83 -19 138 -12 153 -57 239 -211 409 -98 108 -136 178 -120 220 6 15 8 30 6
33 -3 3 -9 -6 -14 -19z m2183 -688 c-33 -10 -73 -23 -88 -30 -32 -13 -57 -14
-57 -3 0 11 130 50 170 50 30 1 27 -2 -25 -17z m48 -175 c4 -9 14 -12 25 -9
16 4 20 -1 20 -21 0 -28 -12 -35 -21 -12 -3 7 -22 16 -41 20 -22 4 -36 13 -36
21 0 19 46 20 53 1z m-146 -343 c-2 -16 -4 -3 -4 27 0 30 2 43 4 28 2 -16 2
-40 0 -55z m-97 -404 c0 -4 -7 -6 -15 -3 -8 4 -15 10 -15 15 0 4 7 6 15 3 8
-4 15 -10 15 -15z m-1310 -136 c0 -7 -39 17 -46 28 -3 6 5 3 20 -6 14 -10 26
-19 26 -22z m307 -119 c-3 -3 -12 -4 -19 -1 -8 3 -5 6 6 6 11 1 17 -2 13 -5z"/>
<path d="M1922 1949 c-7 -23 -24 -50 -36 -60 -13 -10 -31 -37 -40 -59 -9 -22
-23 -40 -31 -40 -8 0 -15 -4 -15 -10 0 -5 -10 -10 -22 -10 -71 0 -183 -54
-249 -120 -52 -52 -64 -91 -31 -109 14 -8 9 -11 -23 -12 -34 -2 -31 -3 20 -9
51 -6 47 -7 -30 -5 -50 1 -126 -4 -173 -13 -74 -14 -83 -14 -95 0 -6 8 -34 30
-62 48 -41 27 -65 35 -137 43 -79 9 -88 13 -88 31 0 15 -3 17 -8 8 -6 -9 -21
1 -53 37 -24 27 -57 64 -74 83 -16 18 -38 47 -47 63 -11 19 -17 24 -18 13 0
-19 76 -123 145 -195 50 -53 50 -53 134 -63 62 -7 95 -17 123 -35 21 -14 42
-25 47 -25 5 0 18 -11 28 -24 10 -13 33 -27 53 -31 25 -4 31 -3 20 4 -11 7 -6
10 20 9 19 -1 70 4 113 10 102 16 164 15 170 0 2 -7 21 21 40 63 20 42 54 97
76 123 23 26 41 50 41 53 0 8 -38 -25 -72 -62 -15 -16 -42 -45 -60 -64 -20
-20 -26 -31 -15 -28 9 4 17 2 17 -3 0 -16 -76 -12 -89 4 -10 12 -3 24 36 63
52 54 130 96 208 114 81 18 99 30 114 78 8 25 22 46 35 53 21 9 32 30 51 96
12 41 -10 23 -23 -19z m-519 -446 c-7 -2 -21 -2 -30 0 -10 3 -4 5 12 5 17 0
24 -2 18 -5z"/>
<path d="M2213 1948 c-41 -61 -85 -157 -78 -168 3 -6 2 -10 -4 -10 -5 0 -11 9
-13 20 -2 12 -7 20 -11 20 -5 -1 -19 11 -31 25 -13 15 -29 25 -37 24 -8 -1
-27 3 -42 9 -35 15 -64 15 -72 2 -3 -5 0 -7 8 -4 8 3 43 -6 77 -20 60 -25 100
-57 100 -81 0 -11 29 -17 31 -6 4 36 32 96 85 186 33 57 24 59 -13 3z"/>
<path d="M2470 1986 c0 -2 24 -14 54 -26 l55 -22 38 26 c21 14 32 26 24 26 -7
0 -25 -9 -40 -19 -27 -19 -28 -19 -70 0 -42 18 -61 23 -61 15z"/>
<path d="M2865 1951 c33 -21 71 -41 85 -45 14 -4 -3 9 -37 29 -34 20 -65 40
-68 45 -4 6 -14 10 -23 10 -9 0 10 -18 43 -39z"/>
<path d="M251 1963 c-18 -20 -4 -31 15 -11 9 9 12 18 7 21 -4 3 -14 -2 -22
-10z"/>
<path d="M205 1930 c-3 -5 3 -10 15 -10 12 0 18 5 15 10 -3 6 -10 10 -15 10
-5 0 -12 -4 -15 -10z"/>
<path d="M209 1896 c6 -7 7 -17 3 -22 -4 -4 1 -2 11 5 23 18 22 26 -4 28 -16
2 -18 -1 -10 -11z"/>
<path d="M267 1880 c3 -11 0 -20 -6 -20 -6 0 -11 5 -11 11 0 5 -5 7 -11 3 -8
-5 -6 -10 5 -16 9 -5 21 -6 26 -3 12 8 13 32 1 39 -5 4 -7 -3 -4 -14z"/>
<path d="M2992 1860 c0 -14 2 -19 5 -12 2 6 2 18 0 25 -3 6 -5 1 -5 -13z"/>
<path d="M1880 1845 c-20 -24 -6 -28 15 -5 10 11 13 20 8 20 -6 0 -16 -7 -23
-15z"/>
<path d="M998 1843 c12 -2 30 -2 40 0 9 3 -1 5 -23 4 -22 0 -30 -2 -17 -4z"/>
<path d="M2944 1813 c-16 -13 -46 -34 -66 -44 -36 -19 -47 -29 -30 -29 16 0
143 88 135 93 -5 3 -22 -6 -39 -20z"/>
<path d="M258 1823 c7 -3 16 -2 19 1 4 3 -2 6 -13 5 -11 0 -14 -3 -6 -6z"/>
<path d="M938 1807 c-3 -19 -2 -25 4 -19 6 6 8 18 6 28 -3 14 -5 12 -10 -9z"/>
<path d="M1801 1814 c0 -11 3 -14 6 -6 3 7 2 16 -1 19 -3 4 -6 -2 -5 -13z"/>
<path d="M2821 1756 c-6 -8 -10 -20 -9 -27 2 -7 -6 -15 -17 -17 -31 -6 -38
-18 -25 -42 10 -18 9 -24 -1 -31 -8 -5 -10 -9 -5 -9 5 0 3 -6 -3 -14 -15 -18
6 -57 26 -49 8 3 13 -2 13 -15 0 -18 3 -19 24 -9 13 7 22 15 19 19 -2 5 -9 6
-14 3 -5 -4 -14 -3 -20 1 -8 4 -7 9 2 15 7 4 10 12 5 16 -5 4 -11 2 -13 -4 -3
-7 -12 -13 -20 -13 -10 0 -13 6 -9 16 3 9 6 22 6 30 0 9 5 12 12 8 8 -5 9 -2
5 9 -4 11 1 20 12 27 13 6 17 17 14 30 -6 21 12 29 19 8 3 -8 12 -5 28 10 24
22 18 30 -10 12 -21 -13 -44 8 -29 26 6 8 9 14 6 14 -2 0 -10 -6 -16 -14z
m-21 -71 c0 -8 -4 -15 -10 -15 -5 0 -10 7 -10 15 0 8 5 15 10 15 6 0 10 -7 10
-15z"/>
<path d="M1868 1753 c7 -3 16 -2 19 1 4 3 -2 6 -13 5 -11 0 -14 -3 -6 -6z"/>
<path d="M1920 1740 c-13 -8 -12 -10 3 -10 9 0 17 5 17 10 0 12 -1 12 -20 0z"/>
<path d="M1868 1723 c6 -2 18 -2 25 0 6 3 1 5 -13 5 -14 0 -19 -2 -12 -5z"/>
<path d="M2673 1707 c-12 -12 -22 -31 -23 -42 -4 -37 0 -65 9 -65 6 0 7 16 4
35 -5 29 -1 41 17 60 13 14 21 27 18 30 -2 3 -14 -5 -25 -18z"/>
<path d="M1947 1713 c-6 -10 19 -34 26 -26 8 7 -3 33 -13 33 -5 0 -11 -3 -13
-7z"/>
<path d="M2893 1698 c-2 -16 1 -18 10 -9 7 7 8 14 1 21 -6 6 -10 2 -11 -12z"/>
<path d="M2975 1709 c-4 -6 -4 -13 -1 -16 3 -4 6 -1 6 6 0 7 5 9 10 6 6 -3 10
-1 10 4 0 14 -17 14 -25 0z"/>
<path d="M2726 1675 c4 -8 7 -15 9 -15 2 0 5 7 9 15 3 9 0 15 -9 15 -9 0 -12
-6 -9 -15z"/>
<path d="M2859 1672 c7 -12 17 -20 22 -16 6 3 9 7 7 8 -2 1 -12 8 -22 16 -18
14 -19 14 -7 -8z"/>
<path d="M905 1670 c3 -5 8 -10 11 -10 2 0 4 5 4 10 0 6 -5 10 -11 10 -5 0 -7
-4 -4 -10z"/>
<path d="M1989 1639 c-1 -24 0 -48 1 -54 1 -5 3 -15 4 -22 1 -7 5 -15 8 -19 4
-3 5 24 3 61 -3 76 -14 100 -16 34z"/>
<path d="M1845 1651 c-3 -6 3 -9 14 -8 11 0 17 5 15 9 -7 11 -22 10 -29 -1z"/>
<path d="M1786 1631 c-5 -13 -23 -40 -40 -60 -18 -20 -43 -53 -55 -73 l-23
-38 31 0 c33 0 41 -20 20 -50 -9 -13 -10 -12 -5 3 3 9 1 17 -4 17 -6 0 -10 -6
-10 -12 0 -9 -4 -8 -10 2 -6 9 -10 10 -10 3 0 -6 7 -19 16 -27 10 -10 13 -24
9 -38 -5 -16 -4 -20 3 -13 16 15 92 247 85 258 -3 6 -2 7 4 4 6 -4 15 5 22 20
10 23 10 25 -2 14 -12 -9 -16 -9 -19 1 -3 8 -8 3 -12 -11z m-36 -116 c0 -8 -4
-15 -9 -15 -13 0 -22 16 -14 24 11 11 23 6 23 -9z m-15 -35 c19 -8 19 -9 -2
-9 -12 -1 -25 4 -28 9 -7 12 2 12 30 0z"/>
<path d="M2815 1631 c-6 -11 9 -23 19 -14 9 9 7 23 -3 23 -6 0 -12 -4 -16 -9z"/>
<path d="M1902 1540 c-23 -48 -53 -119 -68 -157 -15 -37 -31 -74 -37 -80 -14
-19 -41 -16 -62 7 -10 11 -20 18 -22 16 -9 -8 18 -46 32 -46 8 0 15 -5 15 -11
0 -8 4 -8 14 0 16 13 32 -2 21 -19 -9 -15 18 -8 30 7 13 16 53 6 58 -16 2 -9
3 -6 2 7 -1 14 3 22 12 22 9 0 13 -6 9 -15 -11 -29 3 -15 20 20 9 19 20 33 24
30 5 -3 6 5 2 17 -4 18 -2 20 14 14 15 -6 17 -5 7 5 -18 18 -16 30 3 22 13 -5
15 -16 11 -55 -6 -46 -5 -48 14 -37 16 8 26 7 44 -5 21 -14 23 -14 18 4 -3 11
-13 20 -23 20 -37 0 -45 27 -25 88 10 31 21 85 25 119 5 58 4 62 -11 45 -8 -9
-30 -51 -49 -92 -79 -180 -92 -195 -137 -154 -21 20 -23 25 -11 44 9 15 20 20
41 17 15 -2 27 0 27 5 0 8 -15 12 -37 9 -7 -1 -13 1 -13 4 0 14 76 193 92 217
10 15 15 29 10 32 -4 2 -27 -35 -50 -84z m112 -104 c-3 -14 -9 -26 -13 -26
-17 0 -19 14 -4 36 19 30 26 26 17 -10z m-195 -150 c7 -8 8 -17 3 -20 -6 -3
-12 3 -15 14 -6 24 -4 25 12 6z"/>
<path d="M2050 1626 c0 -2 8 -10 18 -17 15 -13 16 -12 3 4 -13 16 -21 21 -21
13z"/>
<path d="M2928 1613 c-21 -9 -38 -19 -38 -24 0 -5 -7 -6 -15 -3 -8 4 -15 2
-15 -4 0 -5 7 -12 15 -16 11 -4 15 -22 15 -69 0 -62 15 -165 25 -175 11 -12
14 7 6 34 -5 16 -12 72 -14 125 l-5 97 44 17 c24 9 44 21 44 26 0 12 -18 10
-62 -8z"/>
<path d="M1840 1580 c0 -5 5 -10 11 -10 5 0 7 5 4 10 -3 6 -8 10 -11 10 -2 0
-4 -4 -4 -10z"/>
<path d="M2698 1565 c-3 -13 -2 -22 2 -20 11 7 20 45 10 45 -4 0 -10 -11 -12
-25z"/>
<path d="M2651 1554 c0 -11 3 -14 6 -6 3 7 2 16 -1 19 -3 4 -6 -2 -5 -13z"/>
<path d="M1010 1544 c0 -5 7 -18 15 -28 8 -11 15 -30 15 -41 0 -12 14 -42 32
-66 18 -24 61 -97 96 -163 60 -113 62 -119 46 -137 -9 -11 -26 -19 -36 -19
-11 0 -16 -5 -13 -10 8 -13 48 -8 67 7 7 7 15 24 16 39 1 15 8 32 15 37 7 5 3
6 -12 2 -15 -5 -21 -3 -17 3 3 5 -1 13 -10 16 -8 3 -14 14 -12 23 2 10 -2 17
-8 16 -7 -1 -14 11 -17 26 -3 16 -12 35 -19 43 -7 7 -14 19 -16 26 -1 7 -11
23 -22 35 -28 29 -25 41 8 32 56 -15 90 -12 96 10 5 17 8 18 16 5 8 -13 10
-13 10 -1 0 11 4 9 16 -5 15 -18 15 -18 5 2 -13 28 -33 35 -53 20 -9 -7 -40
-11 -69 -10 -57 3 -93 27 -104 72 -6 25 -45 83 -45 66z"/>
<path d="M1640 1546 c0 -2 7 -9 15 -16 13 -11 14 -10 9 4 -5 14 -24 23 -24 12z"/>
<path d="M1957 1520 c19 -22 26 -21 17 4 -3 9 -12 16 -20 16 -11 0 -10 -4 3
-20z"/>
<path d="M2704 1516 c-35 -19 -54 -42 -43 -53 7 -7 22 2 45 25 45 45 44 54 -2
28z"/>
<path d="M860 1500 c-9 -6 -10 -10 -3 -10 6 0 15 5 18 10 8 12 4 12 -15 0z"/>
<path d="M1610 1500 c0 -5 5 -10 10 -10 6 0 15 -10 20 -22 6 -16 9 -18 9 -6 1
26 -10 48 -25 48 -8 0 -14 -4 -14 -10z"/>
<path d="M927 1487 c-5 -14 -2 -14 18 -5 18 8 31 7 57 -6 29 -15 31 -15 17 -1
-23 23 -85 31 -92 12z"/>
<path d="M717 1449 c4 -13 8 -18 11 -10 2 7 -1 18 -6 23 -8 8 -9 4 -5 -13z"/>
<path d="M990 1461 c0 -6 4 -13 10 -16 6 -3 7 1 4 9 -7 18 -14 21 -14 7z"/>
<path d="M1507 1459 c7 -7 15 -10 18 -7 3 3 -2 9 -12 12 -14 6 -15 5 -6 -5z"/>
<path d="M1561 1458 c-2 -20 21 -57 39 -63 22 -7 70 27 70 49 0 6 -8 1 -18
-12 -22 -28 -64 -22 -80 11 -6 12 -11 19 -11 15z"/>
<path d="M1403 1435 c0 -8 4 -12 9 -9 5 3 6 10 3 15 -9 13 -12 11 -12 -6z"/>
<path d="M1770 1439 c0 -5 5 -7 10 -4 6 3 10 8 10 11 0 2 -4 4 -10 4 -5 0 -10
-5 -10 -11z"/>
<path d="M1306 1423 c-6 -14 -5 -15 5 -6 7 7 10 15 7 18 -3 3 -9 -2 -12 -12z"/>
<path d="M820 1419 c0 -5 5 -7 10 -4 6 3 10 8 10 11 0 2 -4 4 -10 4 -5 0 -10
-5 -10 -11z"/>
<path d="M1465 1419 c-8 -13 -6 -15 23 -23 13 -5 22 -3 22 3 0 6 -3 10 -7 10
-5 -1 -15 -1 -23 0 -13 1 -13 2 0 11 9 6 10 10 3 10 -6 0 -15 -5 -18 -11z"/>
<path d="M1890 1413 c0 -1 9 -7 20 -13 16 -8 20 -8 20 4 0 9 -8 14 -20 13 -11
-1 -20 -2 -20 -4z"/>
<path d="M928 1398 c-3 -7 21 -47 51 -89 31 -43 75 -108 99 -146 23 -37 52
-79 63 -93 l20 -25 -3 25 c-3 27 -60 115 -150 228 -32 40 -58 79 -58 87 0 19
-17 28 -22 13z"/>
<path d="M1380 1406 c0 -2 7 -6 15 -10 8 -3 15 -1 15 4 0 6 -7 10 -15 10 -8 0
-15 -2 -15 -4z"/>
<path d="M1751 1386 c-9 -11 -5 -13 19 -12 17 1 30 7 30 14 0 16 -35 15 -49
-2z"/>
<path d="M725 1380 c3 -5 8 -10 11 -10 2 0 4 5 4 10 0 6 -5 10 -11 10 -5 0 -7
-4 -4 -10z"/>
<path d="M1424 1376 c5 -13 2 -17 -9 -13 -8 4 -16 3 -19 -1 -3 -4 4 -8 14 -9
25 -2 32 9 18 27 -8 12 -9 11 -4 -4z"/>
<path d="M1455 1380 c3 -5 8 -10 11 -10 2 0 4 5 4 10 0 6 -5 10 -11 10 -5 0
-7 -4 -4 -10z"/>
<path d="M1370 1369 c0 -5 5 -7 10 -4 6 3 10 8 10 11 0 2 -4 4 -10 4 -5 0 -10
-5 -10 -11z"/>
<path d="M1676 1364 c-21 -20 -20 -31 2 -36 13 -4 17 2 18 24 1 33 1 33 -20
12z"/>
<path d="M740 1353 c0 -5 4 -15 10 -23 11 -18 25 -7 17 15 -6 15 -27 21 -27 8z"/>
<path d="M1215 1350 c-3 -5 -1 -10 4 -10 6 0 11 5 11 10 0 6 -2 10 -4 10 -3 0
-8 -4 -11 -10z"/>
<path d="M1051 1333 c-1 -26 14 -31 23 -7 3 8 2 13 -3 9 -5 -3 -12 1 -14 7 -3
7 -6 3 -6 -9z"/>
<path d="M1315 1335 c17 -14 18 -17 5 -25 -8 -5 -10 -10 -4 -10 6 0 17 6 23
13 8 11 5 16 -17 26 -25 11 -26 10 -7 -4z"/>
<path d="M1590 1341 c0 -3 4 -12 9 -19 6 -11 9 -9 13 5 3 12 0 20 -8 20 -8 0
-14 -3 -14 -6z"/>
<path d="M2630 1341 c0 -6 4 -13 10 -16 6 -3 7 1 4 9 -7 18 -14 21 -14 7z"/>
<path d="M1460 1330 c-8 -5 -10 -10 -5 -10 6 0 17 5 25 10 8 5 11 10 5 10 -5
0 -17 -5 -25 -10z"/>
<path d="M824 1299 c20 -17 49 -55 66 -85 18 -30 54 -79 81 -109 36 -38 50
-61 47 -77 -2 -13 -7 -23 -13 -24 -5 0 -19 -4 -29 -9 -25 -11 -90 57 -83 86 3
11 1 16 -5 13 -5 -3 -21 5 -35 17 l-26 24 19 -32 c10 -18 22 -33 26 -33 4 0 8
-6 8 -13 0 -8 9 -22 20 -32 11 -10 18 -21 15 -25 -5 -8 58 -32 76 -28 7 2 21
11 31 21 18 17 21 17 37 3 10 -9 28 -16 40 -16 28 0 71 28 71 46 0 21 -18 17
-46 -12 -39 -38 -25 -52 -209 192 -72 96 -100 124 -121 124 -3 0 11 -14 30
-31z"/>
<path d="M1185 1320 c3 -5 8 -10 11 -10 2 0 4 5 4 10 0 6 -5 10 -11 10 -5 0
-7 -4 -4 -10z"/>
<path d="M1381 1313 c7 -12 15 -20 18 -17 3 2 -3 12 -13 22 -17 16 -18 16 -5
-5z"/>
<path d="M680 1313 c0 -15 19 -37 26 -31 3 4 -1 14 -10 23 -9 9 -16 13 -16 8z"/>
<path d="M1636 1295 c19 -29 21 -30 21 -11 0 7 -9 19 -19 25 -18 11 -18 11 -2
-14z"/>
<path d="M762 1280 c0 -19 2 -27 5 -17 2 9 2 25 0 35 -3 9 -5 1 -5 -18z"/>
<path d="M1350 1306 c0 -2 7 -7 16 -10 8 -3 12 -2 9 4 -6 10 -25 14 -25 6z"/>
<path d="M2620 1304 c0 -6 6 -17 14 -23 8 -7 12 -21 9 -32 -4 -16 -1 -20 12
-17 14 2 23 -8 35 -42 9 -25 26 -63 38 -85 20 -36 21 -37 15 -10 -3 16 -15 44
-26 63 -11 18 -17 36 -13 39 8 8 6 10 51 -71 26 -47 39 -83 40 -115 2 -25 3
-59 4 -76 1 -19 4 -26 11 -19 17 17 -5 145 -36 210 -15 32 -43 73 -62 91 -18
18 -31 37 -27 42 3 6 -7 16 -22 23 -15 7 -31 17 -35 23 -5 6 -8 6 -8 -1z"/>
<path d="M933 1265 c0 -7 6 -11 14 -8 7 3 13 6 13 8 0 2 -6 5 -13 8 -8 3 -14
-1 -14 -8z"/>
<path d="M1575 1259 c-4 -6 -4 -13 -1 -16 3 -4 6 -1 6 5 0 6 8 13 18 15 15 4
15 5 0 6 -9 0 -20 -4 -23 -10z"/>
<path d="M1627 1259 c7 -7 15 -10 18 -7 3 3 -2 9 -12 12 -14 6 -15 5 -6 -5z"/>
<path d="M2960 1261 c0 -6 4 -13 10 -16 6 -3 7 1 4 9 -7 18 -14 21 -14 7z"/>
<path d="M730 1240 c11 -11 20 -31 20 -44 0 -13 4 -26 8 -28 4 -1 18 -18 31
-36 22 -32 25 -71 6 -75 -17 -3 -44 -30 -39 -39 3 -4 2 -8 -3 -8 -9 0 -10 -8
-19 -146 -5 -79 -3 -114 10 -160 21 -73 44 -126 61 -140 8 -6 15 -17 17 -24 4
-19 24 -40 37 -40 5 0 13 -9 16 -20 4 -11 11 -17 17 -14 7 5 9 1 5 -9 -7 -19
4 -29 21 -18 9 5 7 13 -8 29 -21 22 -27 37 -10 27 6 -3 10 -1 10 4 0 6 -10 10
-22 8 -17 -1 -23 3 -23 18 0 11 -8 21 -18 23 -9 2 -17 10 -17 18 0 8 -3 14 -7
14 -5 0 -13 11 -20 25 -8 19 -8 25 0 25 7 0 3 6 -8 12 -30 16 -31 18 -15 28
10 6 11 10 3 10 -7 0 -10 7 -6 17 4 10 2 14 -4 10 -15 -10 -24 18 -10 32 8 8
7 11 -3 11 -7 0 -10 3 -7 7 4 3 1 13 -6 21 -7 10 -8 13 -1 9 9 -5 10 3 5 26
-8 39 -7 81 2 125 4 17 10 46 13 62 4 21 11 30 25 30 25 0 56 47 40 63 -6 6
-11 18 -11 26 0 23 -81 141 -96 141 -10 0 -8 -6 6 -20z"/>
<path d="M2710 1251 c0 -4 11 -20 25 -35 13 -15 30 -37 36 -49 8 -14 14 -17
17 -9 5 15 -43 88 -64 96 -8 3 -14 2 -14 -3z"/>
<path d="M810 1229 c0 -15 18 -19 23 -6 3 8 -1 14 -9 14 -8 0 -14 -4 -14 -8z"/>
<path d="M1974 1232 c9 -8 56 -11 60 -3 3 4 -11 7 -30 8 -19 0 -33 -2 -30 -5z"/>
<path d="M2608 1222 c-8 -30 8 -50 17 -22 4 12 3 26 -3 32 -6 6 -11 2 -14 -10z"/>
<path d="M2910 1219 c-7 -11 -10 -23 -7 -25 2 -2 9 7 15 21 14 30 7 33 -8 4z"/>
<path d="M1570 1216 c0 -17 14 -29 23 -20 8 8 -3 34 -14 34 -5 0 -9 -6 -9 -14z"/>
<path d="M1123 1205 c0 -8 4 -12 9 -9 5 3 6 10 3 15 -9 13 -12 11 -12 -6z"/>
<path d="M1715 1209 c-4 -6 -5 -12 -2 -15 2 -3 7 2 10 11 7 17 1 20 -8 4z"/>
<path d="M1950 1213 c0 -4 5 -15 10 -23 8 -13 10 -13 10 2 0 9 -4 20 -10 23
-5 3 -10 3 -10 -2z"/>
<path d="M2130 1214 c0 -6 7 -17 16 -25 9 -7 31 -43 50 -81 19 -37 39 -68 44
-68 16 0 11 19 -10 40 -11 11 -20 22 -20 25 1 10 -30 61 -55 90 -14 17 -25 25
-25 19z"/>
<path d="M1532 1201 c-11 -7 -11 -9 0 -14 9 -3 15 1 15 9 0 8 -1 14 -1 14 -1
0 -7 -4 -14 -9z"/>
<path d="M1820 1206 c0 -2 7 -7 16 -10 8 -3 12 -2 9 4 -6 10 -25 14 -25 6z"/>
<path d="M1153 1193 c4 -3 2 -14 -4 -24 -10 -19 6 -67 18 -55 3 3 0 12 -6 20
-16 20 -4 39 20 33 28 -7 23 6 -7 20 -15 7 -24 10 -21 6z"/>
<path d="M1327 1189 c7 -7 15 -10 18 -7 3 3 -2 9 -12 12 -14 6 -15 5 -6 -5z"/>
<path d="M1396 1183 c-6 -14 -5 -15 5 -6 7 7 10 15 7 18 -3 3 -9 -2 -12 -12z"/>
<path d="M1420 1190 c0 -5 5 -10 11 -10 5 0 7 5 4 10 -3 6 -8 10 -11 10 -2 0
-4 -4 -4 -10z"/>
<path d="M1654 1176 c1 -8 5 -18 8 -22 4 -3 5 1 4 10 -1 8 -5 18 -8 22 -4 3
-5 -1 -4 -10z"/>
<path d="M1286 1165 c-6 -17 5 -26 21 -17 8 5 7 11 -2 19 -10 10 -14 9 -19 -2z"/>
<path d="M1501 1153 c-1 -12 5 -24 12 -26 9 -4 9 -6 -1 -6 -7 -1 -17 9 -23 22
-9 20 -9 20 -4 -5 3 -16 1 -28 -5 -28 -5 0 -10 8 -10 18 0 10 -8 18 -19 19
-13 1 -18 -3 -15 -12 6 -14 -12 -15 -33 -2 -7 5 -13 4 -13 0 0 -5 6 -15 13
-23 6 -8 2 -6 -10 3 -13 11 -23 14 -27 8 -4 -5 2 -15 11 -21 17 -11 17 -11 -1
-6 -13 5 -17 2 -13 -8 4 -10 0 -12 -14 -9 -10 3 -19 1 -19 -5 0 -5 11 -13 24
-16 13 -3 26 -13 30 -21 7 -19 1 -19 -18 0 -11 11 -21 12 -38 6 -16 -7 -18
-10 -6 -10 9 -1 20 -6 24 -12 4 -8 -1 -9 -17 -5 -23 7 -23 7 -5 -8 11 -9 16
-16 10 -16 -5 0 -2 -5 6 -10 12 -8 9 -10 -12 -10 -16 0 -28 -4 -28 -10 0 -16
37 -12 54 6 9 8 16 11 16 5 0 -6 -12 -17 -27 -25 -16 -8 -21 -15 -13 -15 8 -1
22 3 30 9 9 5 19 5 27 -2 7 -6 13 -7 13 -3 0 4 6 4 13 -1 7 -5 6 -2 -3 6 -9 9
-14 22 -12 29 3 8 0 11 -7 7 -14 -9 -14 9 0 35 19 36 20 62 2 55 -13 -6 -14
-4 -3 9 10 12 15 13 21 4 11 -18 39 -2 40 23 1 17 2 18 6 6 5 -20 12 -22 31
-9 7 4 31 5 52 1 24 -4 43 -3 50 4 8 8 9 6 4 -8 -6 -15 -4 -18 9 -13 10 4 16
2 14 -6 -1 -7 4 -11 11 -9 8 1 11 -2 7 -8 -3 -5 -1 -10 5 -10 6 0 8 -4 5 -10
-3 -5 1 -10 9 -10 8 0 18 -4 21 -10 3 -5 0 -7 -9 -4 -12 4 -14 0 -10 -21 3
-19 1 -24 -7 -19 -9 5 -10 2 -6 -10 4 -11 3 -15 -4 -11 -6 4 -9 0 -7 -11 2
-10 -3 -19 -9 -20 -7 -1 -18 -2 -24 -3 -5 0 -7 -6 -4 -11 4 -6 10 -8 14 -5 5
2 6 -8 3 -23 l-6 -27 -6 24 c-3 14 -12 27 -19 29 -8 3 -11 0 -8 -5 4 -7 -12
-9 -45 -6 -29 2 -56 -2 -65 -8 -11 -10 -12 -8 -7 7 4 10 3 16 -1 11 -5 -4 -19
0 -33 9 -23 15 -24 15 -18 -4 4 -11 2 -23 -3 -27 -7 -4 -8 1 -4 12 6 16 5 16
-11 4 -15 -13 -16 -15 -2 -23 9 -5 21 -6 26 -3 6 3 7 -1 4 -9 -3 -9 -2 -16 4
-16 6 0 13 6 15 13 4 10 6 10 6 0 1 -7 7 -13 15 -13 8 0 17 6 20 13 3 6 3 2 0
-10 -3 -13 -1 -23 5 -23 6 0 11 8 11 18 0 13 2 14 9 3 7 -11 9 -11 14 0 4 10
6 9 6 -3 1 -10 6 -18 12 -18 6 0 8 9 4 23 -7 22 -7 22 10 2 13 -16 16 -17 11
-3 -4 14 -1 16 18 8 13 -5 33 -6 45 -3 17 4 19 8 10 19 -10 12 -8 13 7 7 17
-6 17 -5 5 10 -11 14 -11 18 2 23 9 3 26 -1 39 -10 12 -9 29 -16 38 -16 8 0
-1 10 -20 22 -19 12 -36 22 -38 23 -1 1 2 13 8 26 l10 24 -3 -25 c-1 -17 4
-26 16 -28 15 -3 18 0 12 17 -5 16 -2 21 12 21 15 0 16 2 3 10 -8 5 -11 10 -6
10 5 0 3 7 -4 15 -10 12 -10 18 1 32 11 13 11 17 1 20 -6 3 -9 9 -6 15 4 6 -2
8 -16 3 -15 -5 -20 -4 -16 4 4 6 1 11 -6 11 -10 0 -9 3 2 10 8 5 11 13 6 17
-4 4 -16 -3 -27 -16 -10 -13 -19 -19 -19 -14 0 5 5 14 12 21 7 7 8 12 2 12 -6
0 -15 -5 -20 -10 -7 -7 -11 -6 -11 4 0 8 4 13 8 11 3 -3 13 3 20 12 12 14 11
15 -11 8 -14 -4 -28 -13 -32 -19 -5 -7 -8 -4 -8 7 0 20 -11 22 -29 5 -10 -11
-11 -10 -6 5 4 10 2 17 -4 17 -6 0 -11 -6 -11 -12 0 -9 -4 -8 -10 2 -9 13 -10
13 -11 0 0 -10 -3 -8 -9 5 -8 19 -9 19 -9 -2z m-66 -53 c3 -5 1 -10 -4 -10 -6
0 -11 5 -11 10 0 6 2 10 4 10 3 0 8 -4 11 -10z m-69 -107 c-10 -10 -19 5 -10
18 6 11 8 11 12 0 2 -7 1 -15 -2 -18z"/>
<path d="M1801 1154 c0 -11 3 -14 6 -6 3 7 2 16 -1 19 -3 4 -6 -2 -5 -13z"/>
<path d="M1875 1151 c-3 -5 -2 -12 3 -15 5 -3 9 1 9 9 0 17 -3 19 -12 6z"/>
<path d="M1019 1133 c-13 -17 -13 -17 6 -3 11 8 22 16 24 17 2 2 0 3 -6 3 -6
0 -17 -8 -24 -17z"/>
<path d="M1701 1134 c0 -11 3 -14 6 -6 3 7 2 16 -1 19 -3 4 -6 -2 -5 -13z"/>
<path d="M2342 1134 c10 -10 20 -15 24 -12 3 4 -5 12 -18 18 -22 12 -22 12 -6
-6z"/>
<path d="M2848 1108 c-18 -33 -23 -56 -21 -98 1 -30 2 -66 3 -79 0 -13 3 -21
7 -18 3 4 13 1 21 -6 13 -10 13 -8 0 18 -24 47 -28 129 -8 162 18 31 31 63 26
63 -3 0 -15 -19 -28 -42z"/>
<path d="M1820 1120 c0 -11 4 -20 9 -20 5 0 7 9 4 20 -3 11 -7 20 -9 20 -2 0
-4 -9 -4 -20z"/>
<path d="M1929 1138 c-5 -18 -6 -38 -1 -34 7 8 12 36 6 36 -2 0 -4 -1 -5 -2z"/>
<path d="M895 1120 c-3 -5 1 -10 10 -10 9 0 13 5 10 10 -3 6 -8 10 -10 10 -2
0 -7 -4 -10 -10z"/>
<path d="M2056 1113 c-6 -14 -5 -15 5 -6 7 7 10 15 7 18 -3 3 -9 -2 -12 -12z"/>
<path d="M1733 1101 c0 -11 5 -18 9 -15 4 3 5 11 1 19 -7 21 -12 19 -10 -4z"/>
<path d="M1857 1106 c-4 -10 -1 -13 8 -9 8 3 12 9 9 14 -7 12 -11 11 -17 -5z"/>
<path d="M2085 1111 c-3 -5 0 -13 6 -17 7 -4 9 -3 5 4 -3 5 0 13 6 15 9 4 10
6 1 6 -6 1 -14 -3 -18 -8z"/>
<path d="M2012 1090 c0 -14 2 -19 5 -12 2 6 2 18 0 25 -3 6 -5 1 -5 -13z"/>
<path d="M1055 1080 c-18 -20 -18 -21 8 -48 15 -14 27 -21 27 -14 0 6 -9 17
-19 24 -15 9 -17 16 -10 31 6 10 17 16 25 13 8 -3 14 -1 14 4 0 17 -26 11 -45
-10z"/>
<path d="M1791 1084 c0 -11 3 -14 6 -6 3 7 2 16 -1 19 -3 4 -6 -2 -5 -13z"/>
<path d="M2355 1090 c3 -5 8 -10 11 -10 2 0 4 5 4 10 0 6 -5 10 -11 10 -5 0
-7 -4 -4 -10z"/>
<path d="M932 1070 c-10 -16 -9 -23 5 -40 10 -11 22 -20 27 -20 5 0 1 9 -10
21 -15 17 -16 23 -6 40 7 10 9 19 4 19 -4 0 -13 -9 -20 -20z"/>
<path d="M1483 1083 c-34 -7 -73 -49 -73 -78 0 -80 100 -122 177 -75 52 32 57
104 9 135 -26 17 -79 26 -113 18z m96 -48 l40 -18 -19 -25 c-11 -13 -17 -28
-15 -32 3 -5 1 -11 -5 -15 -14 -9 -13 28 1 42 9 9 3 17 -22 32 -19 12 -39 21
-44 21 -16 0 -36 -38 -25 -45 6 -3 10 -1 10 6 0 9 4 9 15 -1 8 -6 18 -9 24 -6
11 7 26 -32 17 -41 -3 -4 -6 1 -6 10 0 10 -4 17 -10 17 -5 0 -10 -4 -10 -10 0
-5 -11 -17 -24 -25 -31 -20 -72 -4 -61 23 4 9 9 23 12 30 3 7 -3 12 -17 12
-22 0 -23 1 -5 20 16 17 19 18 29 5 10 -14 15 -12 36 13 17 21 27 26 32 18 4
-7 25 -21 47 -31z m-34 -95 c3 -5 1 -10 -4 -10 -6 0 -11 5 -11 10 0 6 2 10 4
10 3 0 8 -4 11 -10z"/>
<path d="M1466 981 c-3 -5 1 -14 10 -21 11 -10 18 -10 27 -1 9 9 9 14 -3 21
-19 12 -27 12 -34 1z"/>
<path d="M1810 1082 c0 -5 7 -9 15 -9 8 0 15 4 15 9 0 4 -7 8 -15 8 -8 0 -15
-4 -15 -8z"/>
<path d="M2121 1074 c0 -11 3 -14 6 -6 3 7 2 16 -1 19 -3 4 -6 -2 -5 -13z"/>
<path d="M1095 1050 c21 -24 26 -25 19 -6 -3 8 -13 17 -22 21 -13 5 -13 2 3
-15z"/>
<path d="M2186 1047 c3 -10 9 -15 12 -12 3 3 0 11 -7 18 -10 9 -11 8 -5 -6z"/>
<path d="M2750 1054 c0 -6 7 -19 16 -30 14 -18 14 -18 3 6 -14 31 -19 36 -19
24z"/>
<path d="M1211 1034 c0 -11 3 -14 6 -6 3 7 2 16 -1 19 -3 4 -6 -2 -5 -13z"/>
<path d="M1882 1014 c-7 -8 -8 -14 -3 -14 10 0 25 19 20 25 -2 1 -10 -3 -17
-11z"/>
<path d="M2665 1020 c3 -4 14 -10 25 -13 11 -3 18 -2 15 3 -3 4 -14 10 -25 13
-11 3 -18 2 -15 -3z"/>
<path d="M2227 1009 c6 -6 9 -19 6 -28 -4 -14 -3 -14 6 -1 16 22 13 40 -6 40
-13 0 -14 -3 -6 -11z"/>
<path d="M1217 995 c-4 -8 -3 -16 1 -19 4 -3 9 4 9 15 2 23 -3 25 -10 4z"/>
<path d="M2254 988 c-11 -34 -11 -61 -2 -80 5 -11 5 -18 -1 -18 -7 0 -7 -8 -1
-24 5 -13 7 -26 5 -28 -3 -2 -5 -18 -7 -36 -1 -18 -6 -32 -10 -32 -4 0 -8 -6
-8 -13 0 -8 6 -14 14 -14 11 0 16 17 20 61 5 54 4 206 -1 206 -1 0 -5 -10 -9
-22z"/>
<path d="M2201 984 c0 -11 3 -14 6 -6 3 7 2 16 -1 19 -3 4 -6 -2 -5 -13z"/>
<path d="M781 972 c-14 -26 -18 -183 -5 -169 4 3 7 41 9 85 1 43 5 84 9 90 4
7 5 12 2 12 -3 0 -10 -8 -15 -18z"/>
<path d="M1250 986 c0 -2 7 -7 16 -10 8 -3 12 -2 9 4 -6 10 -25 14 -25 6z"/>
<path d="M2000 986 c0 -2 7 -7 16 -10 8 -3 12 -2 9 4 -6 10 -25 14 -25 6z"/>
<path d="M620 923 c-21 -82 -24 -210 -6 -293 18 -83 78 -216 122 -270 70 -84
118 -130 131 -126 8 3 12 2 8 -3 -3 -5 9 -21 27 -36 18 -15 26 -23 18 -19 -13
7 -13 6 -1 -9 13 -16 14 -16 28 0 8 10 12 13 9 6 -7 -13 61 -57 88 -55 10 0
46 -10 80 -23 33 -12 69 -26 79 -29 15 -5 16 -9 7 -27 -7 -11 -9 -23 -6 -27 3
-3 6 0 6 6 0 7 7 12 16 12 10 0 14 -6 10 -15 -3 -8 -1 -15 3 -15 13 0 22 28
11 35 -22 14 -8 26 23 20 17 -3 43 -7 57 -9 14 -1 30 -5 35 -7 6 -3 23 -3 39
0 23 5 11 9 -53 19 -225 35 -412 129 -546 274 -163 175 -225 389 -174 592 6
21 8 40 6 42 -2 3 -10 -17 -17 -43z m395 -773 c3 -5 1 -10 -4 -10 -6 0 -11 5
-11 10 0 6 2 10 4 10 3 0 8 -4 11 -10z"/>
<path d="M1240 966 c0 -2 8 -10 18 -17 15 -13 16 -12 3 4 -13 16 -21 21 -21
13z"/>
<path d="M866 945 c4 -8 11 -15 16 -15 6 0 5 6 -2 15 -7 8 -14 15 -16 15 -2 0
-1 -7 2 -15z"/>
<path d="M1866 947 c3 -10 9 -15 12 -12 3 3 0 11 -7 18 -10 9 -11 8 -5 -6z"/>
<path d="M644 939 c-4 -7 -10 -60 -12 -119 -5 -133 19 -234 84 -342 45 -76
147 -198 166 -198 6 0 -18 31 -53 68 -146 156 -214 357 -180 536 11 60 10 78
-5 55z"/>
<path d="M1836 932 c-3 -5 1 -9 9 -9 8 0 12 4 9 9 -3 4 -7 8 -9 8 -2 0 -6 -4
-9 -8z"/>
<path d="M2288 860 c2 -47 6 -87 8 -89 7 -8 2 114 -6 144 -4 17 -5 -8 -2 -55z"/>
<path d="M820 916 c0 -8 -3 -22 -7 -32 -6 -16 -5 -17 9 -4 9 8 14 19 11 24 -3
4 1 12 8 17 11 7 10 9 -3 9 -10 0 -18 -6 -18 -14z"/>
<path d="M1110 915 c0 -8 5 -15 10 -15 6 0 10 5 10 11 0 5 5 7 10 4 6 -3 10
-1 10 4 0 6 -9 11 -20 11 -11 0 -20 -7 -20 -15z"/>
<path d="M1347 923 c-3 -7 -3 -17 2 -40 0 -3 10 2 21 12 11 10 17 22 14 26 -6
11 -31 12 -37 2z"/>
<path d="M965 910 c3 -5 8 -10 11 -10 2 0 4 5 4 10 0 6 -5 10 -11 10 -5 0 -7
-4 -4 -10z"/>
<path d="M1078 913 c7 -3 16 -2 19 1 4 3 -2 6 -13 5 -11 0 -14 -3 -6 -6z"/>
<path d="M1160 915 c0 -3 5 -15 10 -25 14 -26 -24 -49 -38 -24 -8 15 -10 15
-15 0 -4 -9 -2 -15 5 -13 7 1 12 -3 13 -10 0 -6 4 -15 8 -20 5 -4 7 -1 5 7 -2
11 5 14 25 13 15 -1 27 3 27 8 0 6 -4 8 -9 4 -5 -3 -9 9 -8 26 1 18 -3 34 -10
36 -7 3 -13 2 -13 -2z"/>
<path d="M1204 896 c2 -15 6 -30 10 -34 4 -3 6 5 4 20 -2 15 -7 30 -10 34 -4
3 -5 -6 -4 -20z"/>
<path d="M2079 903 c-13 -16 -12 -17 4 -4 16 13 21 21 13 21 -2 0 -10 -8 -17
-17z"/>
<path d="M1010 900 c0 -5 5 -10 11 -10 5 0 7 5 4 10 -3 6 -8 10 -11 10 -2 0
-4 -4 -4 -10z"/>
<path d="M1240 895 c-10 -12 -10 -15 4 -15 18 0 21 -11 5 -27 -7 -7 -6 -12 4
-16 11 -4 13 3 11 30 -3 43 -8 48 -24 28z"/>
<path d="M1275 901 c-3 -5 -2 -12 3 -15 5 -3 9 1 9 9 0 17 -3 19 -12 6z"/>
<path d="M1650 895 c7 -8 16 -12 21 -9 13 8 1 24 -18 24 -13 0 -13 -3 -3 -15z"/>
<path d="M850 890 c0 -5 5 -10 11 -10 5 0 7 5 4 10 -3 6 -8 10 -11 10 -2 0 -4
-4 -4 -10z"/>
<path d="M2157 889 c7 -7 15 -10 18 -7 3 3 -2 9 -12 12 -14 6 -15 5 -6 -5z"/>
<path d="M920 879 c0 -5 5 -7 10 -4 6 3 10 8 10 11 0 2 -4 4 -10 4 -5 0 -10
-5 -10 -11z"/>
<path d="M1070 876 c0 -2 7 -7 16 -10 8 -3 12 -2 9 4 -6 10 -25 14 -25 6z"/>
<path d="M1865 870 c3 -5 8 -10 11 -10 2 0 4 5 4 10 0 6 -5 10 -11 10 -5 0 -7
-4 -4 -10z"/>
<path d="M702 845 c0 -16 2 -22 5 -12 2 9 2 23 0 30 -3 6 -5 -1 -5 -18z"/>
<path d="M2105 860 c3 -5 8 -10 11 -10 2 0 4 5 4 10 0 6 -5 10 -11 10 -5 0 -7
-4 -4 -10z"/>
<path d="M957 825 c-4 -8 -3 -16 1 -19 4 -3 9 4 9 15 2 23 -3 25 -10 4z"/>
<path d="M1215 830 c3 -5 11 -10 16 -10 6 0 7 5 4 10 -3 6 -11 10 -16 10 -6 0
-7 -4 -4 -10z"/>
<path d="M1355 819 c-3 -4 2 -6 10 -5 21 3 28 13 10 13 -9 0 -18 -4 -20 -8z"/>
<path d="M2100 823 c0 -6 8 -17 18 -24 16 -13 16 -13 2 6 -8 11 -16 22 -17 24
-2 2 -3 0 -3 -6z"/>
<path d="M825 803 c4 -33 17 -63 27 -63 6 0 3 11 -6 24 -10 16 -12 26 -5 28 7
2 6 8 -4 16 -12 10 -14 9 -12 -5z"/>
<path d="M1780 810 c-8 -5 -10 -10 -5 -10 6 0 17 5 25 10 8 5 11 10 5 10 -5 0
-17 -5 -25 -10z"/>
<path d="M703 775 c0 -22 2 -30 4 -17 2 12 2 30 0 40 -3 9 -5 -1 -4 -23z"/>
<path d="M910 800 c0 -5 5 -10 11 -10 5 0 7 5 4 10 -3 6 -8 10 -11 10 -2 0 -4
-4 -4 -10z"/>
<path d="M1650 806 c0 -2 8 -10 18 -17 15 -13 16 -12 3 4 -13 16 -21 21 -21
13z"/>
<path d="M1310 791 c0 -5 7 -12 16 -15 14 -5 15 -4 4 9 -14 17 -20 19 -20 6z"/>
<path d="M1041 764 c13 -17 26 -30 28 -27 3 2 -8 16 -24 31 l-28 27 24 -31z"/>
<path d="M1260 786 c0 -2 7 -9 15 -16 9 -7 15 -8 15 -2 0 5 -7 12 -15 16 -8 3
-15 4 -15 2z"/>
<path d="M1470 784 c0 -2 9 -8 20 -14 11 -6 20 -7 20 -2 0 6 -9 12 -20 15 -11
3 -20 3 -20 1z"/>
<path d="M1784 782 c3 -6 3 -12 -1 -15 -5 -2 -2 -2 5 0 7 1 22 -2 33 -7 10 -6
19 -8 19 -6 0 3 -14 13 -31 22 -17 8 -28 11 -25 6z"/>
<path d="M2085 779 c-4 -6 -4 -13 -1 -16 3 -4 6 -1 6 6 0 7 5 9 12 5 7 -4 8
-3 4 4 -9 15 -13 15 -21 1z"/>
<path d="M1107 766 c-4 -10 -1 -13 8 -9 8 3 12 9 9 14 -7 12 -11 11 -17 -5z"/>
<path d="M1176 765 c3 -8 11 -12 17 -8 6 4 8 0 4 -11 -4 -10 -3 -15 3 -11 16
10 12 23 -10 35 -16 9 -18 8 -14 -5z"/>
<path d="M1220 775 c0 -2 10 -10 23 -16 20 -11 21 -11 8 4 -13 16 -31 23 -31
12z"/>
<path d="M1586 768 c3 -5 10 -6 15 -3 13 9 11 12 -6 12 -8 0 -12 -4 -9 -9z"/>
<path d="M1716 772 c-3 -5 1 -9 9 -9 8 0 12 4 9 9 -3 4 -7 8 -9 8 -2 0 -6 -4
-9 -8z"/>
<path d="M786 762 c-7 -12 29 -111 46 -127 13 -12 8 6 -20 84 -11 29 -22 49
-26 43z"/>
<path d="M1389 758 c11 -15 41 -15 41 -1 0 3 -6 3 -14 0 -7 -3 -20 0 -27 6
-11 10 -11 9 0 -5z"/>
<path d="M1640 749 c0 -5 5 -7 10 -4 6 3 10 8 10 11 0 2 -4 4 -10 4 -5 0 -10
-5 -10 -11z"/>
<path d="M2285 734 c-23 -104 -79 -222 -130 -276 -14 -16 -21 -28 -15 -28 14
0 66 73 100 140 27 54 64 179 55 188 -2 2 -7 -9 -10 -24z"/>
<path d="M1003 735 c0 -6 8 -11 18 -11 9 0 15 5 12 11 -2 7 -10 12 -17 12 -7
0 -13 -5 -13 -12z"/>
<path d="M1360 740 c0 -5 5 -10 11 -10 5 0 7 5 4 10 -3 6 -8 10 -11 10 -2 0
-4 -4 -4 -10z"/>
<path d="M1535 740 c-3 -5 -1 -10 4 -10 6 0 11 5 11 10 0 6 -2 10 -4 10 -3 0
-8 -4 -11 -10z"/>
<path d="M2120 746 c0 -2 8 -10 18 -17 15 -13 16 -12 3 4 -13 16 -21 21 -21
13z"/>
<path d="M1083 725 c0 -8 4 -12 9 -9 5 3 6 10 3 15 -9 13 -12 11 -12 -6z"/>
<path d="M1806 724 c-5 -14 -4 -15 9 -4 17 14 19 20 6 20 -5 0 -12 -7 -15 -16z"/>
<path d="M900 725 c0 -5 5 -17 10 -25 5 -8 10 -10 10 -5 0 6 -5 17 -10 25 -5
8 -10 11 -10 5z"/>
<path d="M1320 725 c0 -2 7 -8 15 -15 12 -10 15 -10 15 2 0 8 -7 15 -15 15 -8
0 -15 -1 -15 -2z"/>
<path d="M2224 705 c5 -18 2 -27 -9 -31 -8 -3 -13 -10 -10 -14 3 -4 -2 -10
-10 -14 -19 -7 -19 -32 0 -40 9 -3 15 0 15 9 0 8 4 15 9 15 5 0 7 9 4 20 -3
12 0 20 7 20 7 0 10 8 7 20 -3 11 -1 20 5 20 5 0 6 5 3 10 -13 20 -27 10 -21
-15z"/>
<path d="M865 699 c-4 -6 -4 -13 -1 -16 3 -4 6 -1 6 6 0 7 5 9 12 5 7 -4 8 -3
4 4 -9 15 -13 15 -21 1z"/>
<path d="M930 702 c0 -5 7 -9 15 -9 8 0 12 4 9 9 -3 4 -9 8 -15 8 -5 0 -9 -4
-9 -8z"/>
<path d="M1025 700 c3 -5 8 -10 11 -10 2 0 4 5 4 10 0 6 -5 10 -11 10 -5 0 -7
-4 -4 -10z"/>
<path d="M1650 690 c-6 -11 -7 -20 -2 -20 6 0 12 9 15 20 3 11 3 20 1 20 -2 0
-8 -9 -14 -20z"/>
<path d="M2111 688 c5 -10 11 -18 12 -18 2 0 3 8 3 18 0 10 -6 19 -13 19 -8 0
-9 -6 -2 -19z"/>
<path d="M1262 684 c10 -10 20 -16 22 -13 3 3 -5 11 -17 18 -21 13 -21 12 -5
-5z"/>
<path d="M1426 685 c-11 -8 -15 -15 -10 -15 6 0 19 7 30 15 10 8 15 14 9 14
-5 0 -19 -6 -29 -14z"/>
<path d="M1685 693 c3 -3 0 -11 -5 -18 -7 -8 -5 -12 4 -12 14 0 16 22 3 32 -4
3 -5 2 -2 -2z"/>
<path d="M2200 690 c0 -5 5 -10 10 -10 6 0 10 5 10 10 0 6 -4 10 -10 10 -5 0
-10 -4 -10 -10z"/>
<path d="M715 675 c4 -11 12 -36 17 -55 16 -56 73 -153 114 -196 36 -38 30
-22 -9 23 -11 12 -16 27 -12 34 5 8 4 10 -4 5 -7 -5 -17 5 -26 28 -8 19 -19
37 -25 41 -5 3 -17 29 -25 58 -8 29 -20 59 -26 67 -9 12 -10 11 -4 -5z"/>
<path d="M2081 677 c-8 -10 -7 -14 2 -14 8 0 14 6 14 14 0 7 -1 13 -2 13 -2 0
-8 -6 -14 -13z"/>
<path d="M958 673 c7 -3 16 -2 19 1 4 3 -2 6 -13 5 -11 0 -14 -3 -6 -6z"/>
<path d="M1600 676 c0 -2 7 -7 16 -10 8 -3 12 -2 9 4 -6 10 -25 14 -25 6z"/>
<path d="M1735 660 c-16 -7 -17 -9 -3 -9 9 -1 20 4 23 9 7 11 7 11 -20 0z"/>
<path d="M1770 651 c0 -5 5 -13 10 -16 6 -3 10 -2 10 4 0 5 -4 13 -10 16 -5 3
-10 2 -10 -4z"/>
<path d="M1011 634 c0 -11 3 -14 6 -6 3 7 2 16 -1 19 -3 4 -6 -2 -5 -13z"/>
<path d="M1110 639 c0 -5 5 -7 10 -4 6 3 10 8 10 11 0 2 -4 4 -10 4 -5 0 -10
-5 -10 -11z"/>
<path d="M2000 641 c0 -6 4 -13 10 -16 6 -3 7 1 4 9 -7 18 -14 21 -14 7z"/>
<path d="M1627 626 c-4 -10 -1 -13 8 -9 8 3 12 9 9 14 -7 12 -11 11 -17 -5z"/>
<path d="M890 619 c0 -5 5 -7 10 -4 6 3 10 8 10 11 0 2 -4 4 -10 4 -5 0 -10
-5 -10 -11z"/>
<path d="M967 616 c-4 -10 -1 -13 8 -9 8 3 12 9 9 14 -7 12 -11 11 -17 -5z"/>
<path d="M1140 615 c0 -2 6 -8 13 -14 10 -8 14 -7 14 2 0 8 -6 14 -14 14 -7 0
-13 -1 -13 -2z"/>
<path d="M1307 609 c7 -7 15 -10 18 -7 3 3 -2 9 -12 12 -14 6 -15 5 -6 -5z"/>
<path d="M860 590 c13 -23 20 -26 20 -6 0 8 -7 16 -15 20 -13 4 -14 2 -5 -14z"/>
<path d="M2156 592 c-4 -10 -21 -35 -39 -54 -37 -42 -42 -54 -22 -61 9 -4 12
0 10 13 -2 11 0 22 6 25 5 4 9 0 10 -7 0 -7 4 -4 9 7 5 11 9 15 9 9 1 -6 7
-11 15 -11 8 0 12 6 9 14 -3 7 1 21 8 30 12 14 12 16 -1 9 -8 -4 -7 -1 4 8 10
8 15 19 11 25 -10 16 -23 13 -29 -7z"/>
<path d="M1979 573 c-13 -16 -12 -17 4 -4 16 13 21 21 13 21 -2 0 -10 -8 -17
-17z"/>
<path d="M2900 587 c0 -2 14 -16 31 -33 16 -16 28 -22 24 -14 -5 13 -55 56
-55 47z"/>
<path d="M1095 570 c3 -5 14 -10 23 -10 15 0 15 2 2 10 -20 13 -33 13 -25 0z"/>
<path d="M1010 555 c0 -2 17 -13 38 -25 34 -21 36 -21 19 -2 -16 17 -57 37
-57 27z"/>
<path d="M1315 550 c3 -5 8 -10 11 -10 2 0 4 5 4 10 0 6 -5 10 -11 10 -5 0 -7
-4 -4 -10z"/>
<path d="M920 520 c11 -11 23 -20 27 -20 3 0 -2 9 -12 20 -10 11 -22 20 -27
20 -4 0 1 -9 12 -20z"/>
<path d="M1376 525 c-9 -26 -7 -32 5 -12 6 10 9 21 6 23 -2 3 -7 -2 -11 -11z"/>
<path d="M1916 531 c-4 -5 1 -8 9 -7 21 3 31 16 12 16 -9 0 -18 -4 -21 -9z"/>
<path d="M1962 511 c4 -13 18 -16 19 -4 0 4 -5 9 -11 12 -7 2 -11 -2 -8 -8z"/>
<path d="M2930 506 c0 -8 -8 -21 -18 -28 -9 -7 -30 -30 -46 -52 -27 -37 -28
-38 -4 -22 13 8 35 30 49 48 53 70 51 68 35 68 -9 0 -16 -6 -16 -14z"/>
<path d="M40 501 c8 -5 57 -20 110 -33 71 -16 102 -29 123 -49 15 -15 27 -24
27 -20 0 4 -5 12 -12 19 -31 31 25 4 87 -41 l40 -30 -31 6 c-17 3 -54 9 -81
13 -45 6 -51 4 -56 -15 -4 -16 -1 -21 13 -21 10 0 21 -6 23 -12 4 -10 6 -10 6
0 1 7 -6 15 -14 18 -40 16 -6 19 83 8 53 -6 99 -10 101 -8 2 2 -1 4 -7 4 -6 0
-32 18 -58 41 -43 37 -82 60 -109 64 -5 1 -18 5 -27 9 -9 4 -22 9 -30 10 -7 2
-26 9 -43 16 -16 7 -41 13 -55 15 -14 1 -43 6 -65 10 -29 5 -36 4 -25 -4z"/>
<path d="M1910 506 c0 -2 7 -7 16 -10 8 -3 12 -2 9 4 -6 10 -25 14 -25 6z"/>
<path d="M2026 494 c-5 -14 -4 -15 9 -4 17 14 19 20 6 20 -5 0 -12 -7 -15 -16z"/>
<path d="M2922 445 c-29 -35 -46 -62 -39 -59 24 9 111 124 93 124 -1 0 -26
-29 -54 -65z"/>
<path d="M0 491 c0 -6 5 -13 10 -16 6 -4 8 -10 5 -15 -3 -4 17 -24 44 -44 27
-20 75 -64 107 -98 31 -35 52 -53 46 -42 -6 12 -46 53 -88 93 -42 39 -73 71
-68 71 8 0 63 -41 86 -63 7 -7 21 -16 30 -19 9 -4 35 -31 58 -60 23 -29 47
-55 54 -57 13 -5 2 10 -68 92 -47 56 -162 147 -185 147 -6 0 -11 5 -11 10 0 6
-4 10 -10 10 -5 0 -10 -4 -10 -9z m45 -41 c3 -5 2 -10 -4 -10 -5 0 -13 5 -16
10 -3 6 -2 10 4 10 5 0 13 -4 16 -10z"/>
<path d="M1006 467 c3 -10 9 -15 12 -12 3 3 0 11 -7 18 -10 9 -11 8 -5 -6z"/>
<path d="M1923 465 c0 -8 4 -12 9 -9 4 3 8 9 8 15 0 5 -4 9 -8 9 -5 0 -9 -7
-9 -15z"/>
<path d="M2060 464 c0 -8 -4 -13 -9 -9 -5 3 -13 0 -17 -6 -4 -7 -3 -9 4 -5 5
3 13 0 16 -6 5 -10 7 -10 12 -1 3 7 12 9 21 6 12 -5 12 -2 -3 15 -22 26 -24
27 -24 6z"/>
<path d="M1756 457 c3 -10 9 -15 12 -12 3 3 0 11 -7 18 -10 9 -11 8 -5 -6z"/>
<path d="M1886 456 c3 -9 1 -16 -5 -16 -6 0 -11 -4 -11 -10 0 -5 7 -7 15 -4
17 7 20 30 5 39 -6 3 -7 -1 -4 -9z"/>
<path d="M2237 417 c-72 -94 -174 -176 -292 -234 -108 -52 -189 -78 -310 -98
l-90 -15 70 5 c221 15 463 138 609 309 27 31 47 59 44 62 -3 2 -17 -10 -31
-29z"/>
<path d="M937 434 c-3 -4 1 -17 9 -30 9 -13 13 -28 9 -34 -3 -5 1 -10 10 -10
9 0 13 5 9 11 -4 7 -1 10 7 7 8 -3 13 -12 11 -22 -2 -9 2 -16 8 -16 5 0 9 3 8
8 -3 8 5 12 25 12 8 0 7 -3 -3 -10 -13 -8 -13 -11 1 -26 23 -22 60 -4 52 26
-3 11 -10 17 -15 14 -5 -3 -7 -13 -4 -21 3 -8 1 -11 -4 -8 -6 3 -10 1 -10 -5
0 -6 -5 -8 -11 -4 -8 4 -7 9 2 15 18 11 -21 49 -51 49 -11 0 -20 6 -20 14 0
16 -24 38 -33 30z"/>
<path d="M1080 432 c0 -5 7 -15 15 -22 8 -7 15 -9 15 -6 0 4 -7 14 -15 22 -8
9 -15 11 -15 6z"/>
<path d="M1151 424 c0 -11 3 -14 6 -6 3 7 2 16 -1 19 -3 4 -6 -2 -5 -13z"/>
<path d="M3 410 c2 -11 31 -47 65 -79 34 -32 62 -64 62 -70 0 -7 4 -10 9 -7
11 7 36 -22 28 -31 -6 -6 44 -82 76 -116 10 -10 28 -39 39 -65 14 -30 23 -41
25 -30 6 22 -48 137 -99 212 -42 62 -124 147 -178 186 l-30 21 3 -21z m191
-206 c5 -14 4 -15 -9 -4 -17 14 -19 20 -6 20 5 0 12 -7 15 -16z"/>
<path d="M1044 415 c8 -8 18 -15 22 -15 3 0 1 7 -6 15 -7 8 -17 15 -22 15 -5
0 -3 -7 6 -15z"/>
<path d="M2000 420 c-7 -4 -10 -13 -6 -19 4 -6 1 -9 -7 -5 -16 6 -97 -33 -97
-47 0 -5 -5 -9 -11 -9 -5 0 -7 6 -3 13 4 6 -1 5 -11 -5 -10 -9 -14 -21 -10
-28 4 -7 10 -8 14 -4 13 18 52 48 51 39 -5 -25 0 -37 13 -27 6 5 25 8 42 6 16
-2 25 0 19 4 -14 8 -28 52 -18 52 4 0 15 -7 24 -15 16 -15 17 -13 15 17 l-3
33 13 -30 14 -30 1 26 c0 29 -19 42 -40 29z m-40 -68 c0 -15 -2 -15 -10 -2
-13 20 -13 33 0 25 6 -3 10 -14 10 -23z"/>
<path d="M1840 409 c0 -5 5 -7 10 -4 6 3 10 8 10 11 0 2 -4 4 -10 4 -5 0 -10
-5 -10 -11z"/>
<path d="M2082 381 c-22 -21 -49 -41 -58 -45 -9 -4 -14 -9 -11 -13 7 -6 34 11
87 56 19 16 32 32 29 35 -3 3 -24 -12 -47 -33z"/>
<path d="M891 394 c0 -11 3 -14 6 -6 3 7 2 16 -1 19 -3 4 -6 -2 -5 -13z"/>
<path d="M1144 389 c-5 -8 -3 -9 6 -4 10 6 12 4 7 -8 -3 -10 -2 -17 3 -17 13
0 13 27 1 35 -5 3 -13 0 -17 -6z"/>
<path d="M1707 379 c7 -7 15 -10 18 -7 3 3 -2 9 -12 12 -14 6 -15 5 -6 -5z"/>
<path d="M208 373 c6 -2 18 -2 25 0 6 3 1 5 -13 5 -14 0 -19 -2 -12 -5z"/>
<path d="M1190 369 c0 -5 5 -7 10 -4 6 3 10 8 10 11 0 2 -4 4 -10 4 -5 0 -10
-5 -10 -11z"/>
<path d="M1226 367 c3 -10 9 -15 12 -12 3 3 0 11 -7 18 -10 9 -11 8 -5 -6z"/>
<path d="M1620 375 c0 -5 5 -17 10 -25 5 -8 10 -10 10 -5 0 6 -5 17 -10 25 -5
8 -10 11 -10 5z"/>
<path d="M930 341 c34 -28 50 -31 50 -10 0 6 -4 8 -8 5 -5 -3 -18 4 -30 14
-12 11 -27 20 -34 20 -7 0 3 -13 22 -29z"/>
<path d="M2787 356 c-6 -15 11 -36 28 -36 5 0 2 5 -8 11 -18 10 -18 11 0 25
16 12 16 13 2 14 -9 0 -19 -6 -22 -14z"/>
<path d="M675 341 c17 -7 16 -9 -10 -14 -17 -3 -36 0 -43 6 -10 8 -19 5 -34
-11 -28 -28 -18 -38 10 -12 16 15 22 17 22 7 0 -8 8 -21 18 -30 14 -13 21 -14
30 -5 7 7 12 18 12 25 0 7 8 13 17 13 13 0 14 -3 5 -12 -7 -7 -12 -20 -12 -29
0 -10 -9 -19 -22 -22 -20 -3 -21 -4 -5 -11 22 -11 49 11 42 34 -4 12 1 20 17
24 l23 7 -21 9 c-12 5 -25 13 -29 19 -3 6 -14 11 -23 10 -14 0 -13 -2 3 -8z
m-8 -36 c0 -8 -4 -15 -9 -15 -4 0 -8 7 -8 15 0 8 4 15 8 15 5 0 9 -7 9 -15z"/>
<path d="M1095 334 c2 -11 4 -21 5 -24 1 -3 2 -8 1 -12 0 -5 6 -8 14 -8 8 0
15 -7 15 -15 0 -8 4 -15 10 -15 5 0 7 7 4 15 -4 9 0 15 9 15 10 0 13 -7 10
-20 -5 -18 -21 -25 -45 -21 -19 3 -5 -15 19 -26 35 -17 52 -17 29 0 -16 12
-16 14 -2 26 22 18 20 48 -4 61 -11 6 -20 8 -20 4 0 -4 -11 3 -24 15 -22 20
-24 21 -21 5z"/>
<path d="M1565 340 c-3 -5 -1 -10 4 -10 6 0 11 5 11 10 0 6 -2 10 -4 10 -3 0
-8 -4 -11 -10z"/>
<path d="M46 293 c28 -26 72 -79 99 -118 58 -84 69 -97 59 -70 -14 39 -87 140
-128 178 -62 57 -88 66 -30 10z"/>
<path d="M478 323 c7 -3 16 -2 19 1 4 3 -2 6 -13 5 -11 0 -14 -3 -6 -6z"/>
<path d="M1805 321 c-3 -6 -1 -11 5 -11 6 0 8 -4 5 -10 -3 -5 1 -10 10 -10 9
0 13 -4 10 -10 -3 -5 -2 -10 4 -10 5 0 9 12 8 27 -2 28 -29 43 -42 24z"/>
<path d="M511 310 c0 -8 6 -24 14 -34 11 -15 15 -16 15 -5 0 8 -7 24 -15 35
-11 14 -14 15 -14 4z"/>
<path d="M1901 304 c0 -11 3 -14 6 -6 3 7 2 16 -1 19 -3 4 -6 -2 -5 -13z"/>
<path d="M2230 305 c-7 -9 -10 -18 -7 -21 3 -3 10 4 17 15 13 25 8 27 -10 6z"/>
<path d="M465 290 c10 -11 20 -20 23 -20 3 0 -3 9 -13 20 -10 11 -20 20 -23
20 -3 0 3 -9 13 -20z"/>
<path d="M1747 304 c-4 -4 -17 -9 -29 -11 -29 -5 -35 -12 -19 -23 16 -9 42 -2
53 14 5 7 8 4 8 -6 0 -24 17 -23 30 2 7 14 7 20 0 20 -5 0 -10 -5 -10 -12 0
-6 -6 -4 -13 6 -7 9 -16 14 -20 10z"/>
<path d="M1966 295 c-11 -8 -18 -17 -15 -19 2 -3 15 4 29 14 14 11 21 20 15
19 -5 0 -19 -6 -29 -14z"/>
<path d="M585 279 c-4 -11 -4 -23 -1 -26 3 -4 6 2 7 13 0 13 5 9 15 -14 8 -18
11 -38 8 -44 -5 -7 -2 -9 9 -5 9 3 19 2 22 -3 4 -6 11 -10 17 -10 6 0 5 7 -3
17 -13 16 -11 16 15 -1 16 -10 25 -13 22 -7 -4 6 5 22 20 36 21 19 30 22 40
14 21 -17 17 -1 -5 22 l-19 21 -14 -29 c-11 -23 -20 -28 -51 -30 -35 -1 -38 1
-33 21 4 18 0 26 -19 34 -21 10 -25 8 -30 -9z"/>
<path d="M1061 286 c-1 -16 -4 -17 -13 -8 -17 17 -33 15 -18 -3 16 -19 22 -19
46 1 10 8 14 13 7 10 -6 -4 -14 0 -16 6 -3 7 -6 4 -6 -6z"/>
<path d="M1198 267 c5 -20 6 -20 13 -1 7 17 8 17 8 1 1 -15 3 -16 15 -5 17 16
17 16 -16 22 -22 4 -25 1 -20 -17z"/>
<path d="M1277 283 c-4 -3 -7 -11 -7 -17 0 -6 5 -5 12 2 6 6 9 14 7 17 -3 3
-9 2 -12 -2z"/>
<path d="M1640 275 c-17 -10 -28 -11 -37 -3 -9 7 -13 7 -13 -1 0 -6 -10 -10
-21 -8 -12 1 -24 -5 -26 -13 -4 -12 -3 -12 5 -1 13 18 25 -3 17 -29 -4 -14 -2
-20 8 -20 10 0 13 8 9 25 -4 22 -1 25 24 26 16 1 33 1 37 0 4 -1 10 6 13 14 3
8 11 12 17 8 6 -3 7 -1 3 5 -4 7 -8 12 -9 11 -1 -1 -13 -7 -27 -14z"/>
<path d="M1930 283 c0 -9 -37 -28 -92 -48 -36 -13 -38 -13 -38 6 0 11 -5 17
-10 14 -6 -4 -8 -15 -5 -26 4 -11 3 -19 -2 -18 -10 2 -75 -22 -71 -26 4 -4 85
18 123 34 83 34 105 46 105 58 0 7 -2 13 -5 13 -3 0 -5 -3 -5 -7z"/>
<path d="M2305 279 c-4 -6 -5 -12 -2 -15 2 -3 7 2 10 11 7 17 1 20 -8 4z"/>
<path d="M1288 244 c-8 -18 -8 -28 3 -40 13 -16 12 -17 -8 -12 -13 4 -23 3
-23 -2 0 -4 16 -11 36 -14 19 -4 43 -10 52 -12 14 -5 14 -3 -2 10 -10 8 -23
13 -27 10 -5 -3 -9 4 -9 16 0 12 -4 18 -10 15 -5 -3 -10 1 -10 9 0 20 2 20 45
-4 20 -11 34 -16 31 -11 -8 12 32 41 56 41 11 0 18 -7 18 -17 0 -13 -2 -15 -8
-5 -15 23 -39 4 -34 -28 3 -19 0 -30 -7 -30 -7 0 -9 5 -6 10 3 6 -1 10 -9 10
-27 0 -6 -28 25 -32 28 -4 50 6 30 14 -5 1 -13 17 -17 33 -7 28 -6 29 10 16
15 -13 18 -12 23 9 6 22 7 23 14 4 6 -14 8 -15 8 -3 1 19 32 19 55 0 16 -13
13 -31 -5 -31 -6 0 -7 5 -3 12 4 7 3 8 -4 4 -6 -4 -9 -13 -6 -21 7 -17 -19
-30 -36 -20 -8 5 -5 13 9 26 12 11 21 23 21 26 0 18 -46 -40 -47 -59 -2 -16 0
-19 6 -9 5 7 11 9 14 4 7 -10 133 -6 181 6 37 9 44 26 12 26 -13 0 -22 -3 -19
-7 2 -5 -8 -8 -24 -9 -15 0 -48 -3 -71 -5 -30 -4 -42 -2 -37 5 3 6 13 11 21
11 8 0 13 4 9 9 -3 5 0 13 7 17 8 5 4 10 -11 16 -12 4 -20 12 -17 17 3 4 -11
9 -32 9 -20 1 -54 3 -75 4 -27 3 -41 -1 -47 -12 -5 -9 -18 -16 -30 -17 -18 -2
-19 1 -10 12 7 8 17 12 24 8 6 -3 7 -2 3 3 -17 18 -59 11 -69 -12z"/>
<path d="M15 250 c-4 -6 9 -32 28 -58 19 -26 48 -77 65 -114 38 -81 53 -94 26
-23 -4 11 -9 29 -11 40 -2 11 -8 22 -13 23 -6 2 -10 8 -10 13 0 20 -62 109
-73 102 -6 -4 -8 0 -4 10 7 19 2 23 -8 7z"/>
<path d="M1085 250 c3 -5 8 -10 11 -10 2 0 4 5 4 10 0 6 -5 10 -11 10 -5 0 -7
-4 -4 -10z"/>
<path d="M1245 250 c3 -6 1 -10 -6 -10 -7 0 -10 -3 -6 -6 3 -3 13 -2 22 4 16
8 16 9 1 15 -10 4 -15 3 -11 -3z"/>
<path d="M1651 236 c-20 -21 -21 -24 -5 -22 19 3 53 46 37 46 -5 0 -20 -11
-32 -24z"/>
<path d="M1700 237 c0 -16 3 -18 9 -8 6 9 11 10 15 3 4 -6 13 -9 21 -6 8 4 12
11 9 16 -4 6 -10 5 -15 -3 -5 -9 -9 -10 -9 -3 0 7 -7 14 -15 18 -11 4 -15 -1
-15 -17z"/>
<path d="M813 233 c0 -12 5 -20 9 -17 4 3 24 -20 43 -50 33 -49 53 -61 70 -44
4 3 -2 9 -12 12 -10 3 -29 20 -43 37 -67 84 -69 86 -67 62z"/>
<path d="M1192 220 c21 -32 58 -37 58 -7 0 9 -2 9 -8 -1 -6 -9 -13 -7 -30 8
-27 25 -36 26 -20 0z"/>
<path d="M1601 223 c7 -10 14 -20 16 -22 1 -2 1 6 0 18 -1 11 -8 21 -15 21
-12 0 -12 -3 -1 -17z"/>
<path d="M2568 233 c7 -3 16 -2 19 1 4 3 -2 6 -13 5 -11 0 -14 -3 -6 -6z"/>
<path d="M277 155 c20 -41 39 -73 41 -71 4 5 -66 146 -73 146 -3 0 12 -34 32
-75z"/>
<path d="M2510 220 c-10 -6 -11 -10 -2 -10 6 0 12 -9 12 -20 0 -25 -17 -26
-23 -2 -4 15 -5 15 -6 0 -1 -22 18 -33 32 -19 12 12 18 61 7 61 -3 0 -12 -5
-20 -10z"/>
<path d="M2580 209 c0 -5 5 -7 10 -4 6 3 10 8 10 11 0 2 -4 4 -10 4 -5 0 -10
-5 -10 -11z"/>
<path d="M480 200 c0 -3 12 -13 26 -24 26 -18 26 -18 15 1 -6 11 -8 22 -6 25
2 2 -5 4 -15 4 -11 0 -20 -3 -20 -6z"/>
<path d="M770 202 c23 -4 24 -5 5 -13 -19 -7 -19 -8 3 -8 13 -1 22 5 22 14 0
10 -9 15 -27 14 -28 -2 -28 -2 -3 -7z"/>
<path d="M2164 199 c-5 -8 -3 -9 6 -4 10 6 12 4 7 -9 -4 -10 -3 -15 3 -11 6 3
10 -3 10 -14 0 -13 6 -21 18 -21 10 0 13 3 6 8 -6 4 -11 18 -10 32 1 26 -27
40 -40 19z"/>
<path d="M2265 199 c-4 -6 -5 -12 -2 -15 2 -3 7 2 10 11 7 17 1 20 -8 4z"/>
<path d="M2967 203 c-4 -3 -7 -14 -7 -24 0 -10 -9 -21 -21 -24 -11 -4 -18 -9
-16 -12 3 -2 15 1 27 7 11 6 26 9 33 7 7 -2 -1 -11 -18 -20 -34 -18 -29 -22 9
-7 29 11 35 40 9 40 -17 1 -17 1 0 14 9 7 17 16 17 20 0 8 -25 8 -33 -1z"/>
<path d="M303 183 c9 -11 17 -24 17 -29 0 -5 9 -15 20 -22 20 -12 21 -12 5 17
-8 17 -25 36 -38 42 -21 12 -21 11 -4 -8z"/>
<path d="M367 193 c-3 -5 8 -8 23 -8 15 0 26 3 23 8 -2 4 -13 7 -23 7 -10 0
-21 -3 -23 -7z"/>
<path d="M458 178 c9 -11 25 -29 34 -39 16 -17 16 -19 0 -28 -9 -5 -14 -13
-10 -16 8 -9 44 16 43 30 -1 13 -64 75 -76 75 -5 0 -1 -10 9 -22z"/>
<path d="M820 193 c0 -6 6 -18 13 -25 8 -7 12 -19 9 -26 -4 -14 15 -42 29 -42
5 0 9 7 9 15 0 8 -7 15 -16 15 -9 0 -14 6 -11 13 3 7 -4 24 -14 38 -10 13 -19
19 -19 12z"/>
<path d="M438 156 c-3 -14 -1 -29 5 -33 6 -4 7 -1 3 8 -4 8 -1 6 8 -5 8 -10
19 -15 25 -11 7 4 8 10 1 18 -6 7 -17 21 -24 31 -12 18 -13 18 -18 -8z"/>
<path d="M726 173 c-3 -3 -6 -11 -6 -17 0 -7 3 -7 8 1 5 8 12 9 22 2 11 -8 12
-12 2 -16 -6 -2 -10 -9 -6 -14 9 -15 20 -10 21 11 2 20 -29 45 -41 33z"/>
<path d="M390 160 c8 -5 22 -10 30 -10 13 0 13 1 0 10 -8 5 -22 10 -30 10 -13
0 -13 -1 0 -10z"/>
<path d="M795 160 c-3 -5 -2 -10 4 -10 5 0 13 5 16 10 3 6 2 10 -4 10 -5 0
-13 -4 -16 -10z"/>
<path d="M2250 150 c-4 -20 -10 -25 -33 -23 -24 2 -26 -1 -17 -17 14 -26 13
-33 -5 -26 -9 3 -15 0 -15 -9 0 -8 -5 -15 -12 -15 -6 0 -8 -3 -5 -7 4 -3 -1
-12 -11 -19 -9 -7 -12 -14 -6 -14 6 0 17 7 24 15 9 11 17 12 32 4 32 -17 68
-3 68 26 0 14 5 25 12 25 7 0 5 5 -4 13 -9 6 -18 26 -20 42 -4 28 -4 29 -8 5z
m7 -59 c0 -11 -6 -17 -14 -14 -14 6 -17 16 -6 26 12 13 22 7 20 -12z m-42 -31
c-3 -5 -10 -10 -16 -10 -5 0 -9 5 -9 10 0 6 7 10 16 10 8 0 12 -4 9 -10z"/>
<path d="M390 120 c-6 -11 -8 -20 -6 -20 3 0 10 9 16 20 6 11 8 20 6 20 -3 0
-10 -9 -16 -20z"/>
<path d="M30 115 c7 -9 15 -13 17 -11 7 7 -7 26 -19 26 -6 0 -6 -6 2 -15z"/>
<path d="M2140 100 c6 -11 15 -20 20 -20 6 0 2 9 -7 20 -10 11 -19 20 -21 20
-1 0 2 -9 8 -20z"/>
<path d="M840 103 c0 -4 5 -15 10 -23 8 -13 10 -13 10 2 0 9 -4 20 -10 23 -5
3 -10 3 -10 -2z"/>
<path d="M705 91 c-3 -6 -16 -12 -28 -12 -17 -1 -18 -2 -4 -6 11 -3 17 -14 17
-31 1 -24 2 -25 11 -9 6 10 8 24 5 32 -3 8 0 16 7 18 7 2 9 7 6 11 -4 4 -10 3
-14 -3z"/>
<path d="M798 83 c26 -12 30 -18 21 -30 -7 -7 -9 -16 -5 -20 3 -3 6 -1 6 5 0
6 7 9 15 6 10 -4 13 -13 9 -26 -4 -14 -2 -18 5 -14 6 4 11 16 11 26 0 10 5 22
11 26 8 5 10 -3 7 -24 -2 -17 -1 -29 4 -26 11 7 10 64 -1 64 -6 0 -13 -4 -16
-10 -11 -18 -23 -11 -30 17 -4 19 -9 23 -14 14 -6 -9 -11 -10 -15 -2 -4 6 -15
11 -24 11 -10 0 -3 -7 16 -17z"/>
<path d="M195 70 c-3 -5 0 -10 9 -10 8 0 19 -12 24 -27 6 -16 11 -23 11 -16 2
20 -18 63 -28 63 -5 0 -13 -4 -16 -10z"/>
<path d="M946 55 c4 -8 11 -15 16 -15 6 0 5 6 -2 15 -7 8 -14 15 -16 15 -2 0
-1 -7 2 -15z"/>
<path d="M2276 43 c-15 -20 -25 -24 -52 -21 -21 2 -33 0 -31 -6 2 -6 17 -12
34 -14 35 -4 77 26 72 50 -3 13 -8 11 -23 -9z"/>
<path d="M1578 43 c12 -2 30 -2 40 0 9 3 -1 5 -23 4 -22 0 -30 -2 -17 -4z"/>
<path d="M75 30 c3 -5 8 -10 11 -10 2 0 4 5 4 10 0 6 -5 10 -11 10 -5 0 -7 -4
-4 -10z"/>
<path d="M2565 20 c-21 -24 -18 -24 25 -6 25 10 29 14 15 20 -22 8 -19 9 -40
-14z"/>
<path d="M2644 19 c-19 -22 -19 -22 3 -10 27 14 36 14 28 1 -3 -5 -1 -10 4
-10 15 0 14 15 -2 29 -11 8 -18 6 -33 -10z"/>
<path d="M637 17 c-4 -10 2 -13 20 -9 18 3 21 7 11 13 -18 12 -25 11 -31 -4z"/>
</g>
</svg>
